# This file uses centimeters as units for non-parametric coordinates.

mtllib TurretPylon.mtl
g default
v -1.071480 -0.032798 1.071480
v 1.071480 -0.032798 1.071480
v -0.500000 2.363431 0.500000
v 0.500000 2.363431 0.500000
v -0.500000 2.363431 -0.500000
v 0.500000 2.363431 -0.500000
v -1.071480 -0.032798 -1.071480
v 1.071480 -0.032798 -1.071480
vt -0.000000 -0.000000
vt 1.000000 -0.000000
vt 0.733322 0.266678
vt 0.266678 0.266678
vt 0.733322 0.733322
vt 0.266678 0.733322
vt 1.000000 1.000000
vt -0.000000 1.000000
vn 0.000000 0.231985 0.972719
vn 0.000000 0.231985 0.972719
vn 0.000000 0.231985 0.972719
vn 0.000000 0.231985 0.972719
vn 0.000000 1.000000 0.000000
vn 0.000000 1.000000 0.000000
vn 0.000000 1.000000 0.000000
vn 0.000000 1.000000 0.000000
vn 0.000000 0.231985 -0.972719
vn 0.000000 0.231985 -0.972719
vn 0.000000 0.231985 -0.972719
vn 0.000000 0.231985 -0.972719
vn 0.972719 0.231985 0.000000
vn 0.972719 0.231985 0.000000
vn 0.972719 0.231985 0.000000
vn 0.972719 0.231985 0.000000
vn -0.972719 0.231985 0.000000
vn -0.972719 0.231985 0.000000
vn -0.972719 0.231985 0.000000
vn -0.972719 0.231985 0.000000
s off
g pCube1
usemtl initialShadingGroup
f 1/1/1 2/2/2 4/3/3 3/4/4
f 3/4/5 4/3/6 6/5/7 5/6/8
f 5/6/9 6/5/10 8/7/11 7/8/12
f 2/2/13 8/7/14 6/5/15 4/3/16
f 7/8/17 1/1/18 3/4/19 5/6/20
